<?xml version="1.0" encoding="UTF-8" standalone="no"?><!DOCTYPE svg PUBLIC "-//W3C//DTD SVG 1.1//EN" "http://www.w3.org/Graphics/SVG/1.1/DTD/svg11.dtd"><svg width="100%" height="100%" viewBox="0 0 3417 488" version="1.1" xmlns="http://www.w3.org/2000/svg" xmlns:xlink="http://www.w3.org/1999/xlink" xml:space="preserve" xmlns:serif="http://www.serif.com/" style="fill-rule:evenodd;clip-rule:evenodd;stroke-linejoin:round;stroke-miterlimit:2;"><g><rect x="-5.588" y="-4.657" width="3425.13" height="504.503" style="fill:#31a8ff;"/></g><g><text x="426.109px" y="314.838px" style="font-family:'Verdana-Bold', 'Verdana', sans-serif;font-weight:700;font-size:173.613px;fill:#fff;">A F F I N I T Y  D E S I G N E R</text><g><path d="M194.911,86.915l-128.387,222.375l-0,63.908c-0,4.825 3.941,8.808 8.766,8.854l123.259,0l-61.929,-107.271l108.462,-187.866l-50.171,-0Zm63.454,-0l-59.766,103.521l45.721,79.183l117.341,-0l0,-173.875c-0.012,-4.846 -4.004,-8.829 -8.854,-8.829l-94.442,-0Zm-66.408,115.016l-25.379,43.967c-2.825,4.892 -2.825,10.942 -0,15.838c2.825,4.92 8.067,7.87 13.733,7.87l50.729,0l-39.083,-67.675Zm-38.392,79.196l58.267,100.925l141.063,0c4.816,-0.046 8.754,-4.012 8.766,-8.829l0,-92.108l-208.096,0.012Z" style="fill:#fff;fill-rule:nonzero;"/></g></g></svg>