<?xml version="1.0" encoding="UTF-8" standalone="no"?><!DOCTYPE svg PUBLIC "-//W3C//DTD SVG 1.1//EN" "http://www.w3.org/Graphics/SVG/1.1/DTD/svg11.dtd"><svg width="100%" height="100%" viewBox="0 0 625 117" version="1.1" xmlns="http://www.w3.org/2000/svg" xmlns:xlink="http://www.w3.org/1999/xlink" xml:space="preserve" xmlns:serif="http://www.serif.com/" style="fill-rule:evenodd;clip-rule:evenodd;stroke-linejoin:round;stroke-miterlimit:2;"><g><rect x="-1.806" y="-2.061" width="627.165" height="119.194" style="fill:#31a8ff;"/></g><g><text x="117.812px" y="75.022px" style="font-family:'Verdana-Bold', 'Verdana', sans-serif;font-weight:700;font-size:41.667px;fill:#fff;">AFFINITY DESIGNER</text><clipPath id="_clip1"><rect id="affinitydesigner" x="22.118" y="21.466" width="70.833" height="70.833"/></clipPath><g clip-path="url(#_clip1)"><path d="M52.931,21.466l-30.813,53.37l0,15.338c-0,1.158 0.946,2.114 2.104,2.125l29.582,0l-14.863,-25.745l26.031,-45.088l-12.041,0Zm15.229,0l-14.344,24.845l10.973,19.004l28.162,-0l0,-41.73c-0.003,-1.163 -0.961,-2.119 -2.125,-2.119l-22.666,0Zm-15.938,27.604l-6.091,10.552c-0.678,1.174 -0.678,2.626 -0,3.801c0.678,1.181 1.936,1.889 3.296,1.889l12.175,-0l-9.38,-16.242Zm-9.214,19.007l13.984,24.222l33.855,0c1.156,-0.011 2.101,-0.963 2.104,-2.119l0,-22.106l-49.943,0.003Z" style="fill:#fff;fill-rule:nonzero;"/></g></g></svg>