<?xml version="1.0" encoding="UTF-8" standalone="no"?><!DOCTYPE svg PUBLIC "-//W3C//DTD SVG 1.1//EN" "http://www.w3.org/Graphics/SVG/1.1/DTD/svg11.dtd"><svg width="100%" height="100%" viewBox="0 0 441 117" version="1.1" xmlns="http://www.w3.org/2000/svg" xmlns:xlink="http://www.w3.org/1999/xlink" xml:space="preserve" xmlns:serif="http://www.serif.com/" style="fill-rule:evenodd;clip-rule:evenodd;stroke-linejoin:round;stroke-miterlimit:2;"><g><rect x="0" y="0" width="440.625" height="116.667" style="fill:#47cf73;"/></g><g><text x="148.199px" y="72.917px" style="font-family:'Verdana-Bold', 'Verdana', sans-serif;font-weight:700;font-size:41.667px;fill:#fff;">ANDRIOD</text><path d="M109.152,77.126c-0,1.75 -1.412,3.171 -3.166,3.171l-36.673,0c-1.751,0 -3.168,-1.421 -3.168,-3.171l0,-32.764c9.613,-0.035 32.039,-0.035 43.007,-0l-0,32.764Z" style="fill:#fff;fill-rule:nonzero;"/><path d="M79.73,27.563c0.181,0.355 0.044,0.8 -0.316,0.984c-0.357,0.181 -0.801,0.038 -0.982,-0.318l-4.635,-9.035c-0.185,-0.36 -0.037,-0.796 0.32,-0.982c0.356,-0.184 0.797,-0.042 0.981,0.317l4.632,9.035l0,-0.001Z" style="fill:#fff;fill-rule:nonzero;"/><path d="M96.614,27.944c-0.201,0.35 -0.647,0.47 -0.999,0.263c-0.348,-0.198 -0.467,-0.644 -0.263,-0.994l5.077,-8.79c0.201,-0.349 0.65,-0.473 0.995,-0.267c0.351,0.2 0.47,0.647 0.269,0.994l-5.079,8.794l-0,-0Z" style="fill:#fff;fill-rule:nonzero;"/><path d="M120.348,68.241c0,2.549 -2.064,4.617 -4.617,4.617c-2.553,0 -4.622,-2.067 -4.622,-4.617l-0,-20.206c-0,-2.553 2.067,-4.615 4.622,-4.615c2.552,-0 4.617,2.062 4.617,4.615l0,20.206Z" style="fill:#fff;fill-rule:nonzero;"/><path d="M64.158,68.241c0,2.549 -2.07,4.617 -4.615,4.617c-2.555,0 -4.621,-2.067 -4.621,-4.617l0,-20.206c0,-2.553 2.064,-4.615 4.621,-4.615c2.545,-0 4.615,2.062 4.615,4.615l0,20.206Z" style="fill:#fff;fill-rule:nonzero;"/><path d="M84.265,91.366c0,2.548 -2.067,4.617 -4.624,4.617c-2.548,-0 -4.612,-2.068 -4.612,-4.617l0,-20.206c0,-2.547 2.064,-4.621 4.612,-4.621c2.555,0 4.624,2.074 4.624,4.621l0,20.206Z" style="fill:#fff;fill-rule:nonzero;"/><path d="M100.283,91.366c-0,2.548 -2.067,4.617 -4.622,4.617c-2.548,-0 -4.617,-2.068 -4.617,-4.617l-0,-20.206c-0,-2.547 2.067,-4.621 4.617,-4.621c2.553,0 4.622,2.074 4.622,4.621l-0,20.206Z" style="fill:#fff;fill-rule:nonzero;"/><path d="M87.649,22.772c-11.231,-0 -20.48,8.547 -21.717,19.534l43.433,0c-1.233,-10.987 -10.478,-19.534 -21.716,-19.534l0,-0Zm-9.799,11.843c-1.001,-0 -1.811,-0.806 -1.811,-1.805c0,-0.995 0.81,-1.801 1.811,-1.801c0.992,0 1.801,0.806 1.801,1.801c0,0.999 -0.809,1.805 -1.801,1.805Zm19.637,-0c-0.999,-0 -1.808,-0.806 -1.808,-1.805c0,-0.995 0.809,-1.801 1.808,-1.801c1.002,0 1.804,0.806 1.804,1.801c0,0.999 -0.802,1.805 -1.804,1.805Z" style="fill:#fff;fill-rule:nonzero;"/></g></svg>