<?xml version="1.0" encoding="UTF-8" standalone="no"?><!DOCTYPE svg PUBLIC "-//W3C//DTD SVG 1.1//EN" "http://www.w3.org/Graphics/SVG/1.1/DTD/svg11.dtd"><svg width="100%" height="100%" viewBox="0 0 441 117" version="1.1" xmlns="http://www.w3.org/2000/svg" xmlns:xlink="http://www.w3.org/1999/xlink" xml:space="preserve" xmlns:serif="http://www.serif.com/" style="fill-rule:evenodd;clip-rule:evenodd;stroke-linejoin:round;stroke-miterlimit:2;"><g><rect x="0" y="0" width="440.625" height="116.667" style="fill:#47cf73;"/></g><g><text x="105.475px" y="72.917px" style="font-family:'Verdana-Bold', 'Verdana', sans-serif;font-weight:700;font-size:41.667px;fill:#fff;">A N D R O I D</text><path d="M77.485,75.792c0,1.751 -1.412,3.172 -3.166,3.172l-36.673,-0c-1.75,-0 -3.168,-1.421 -3.168,-3.172l0,-32.764c9.613,-0.035 32.039,-0.035 43.007,0l0,32.764Z" style="fill:#fff;fill-rule:nonzero;"/><path d="M48.064,26.23c0.181,0.355 0.043,0.799 -0.317,0.983c-0.357,0.181 -0.801,0.039 -0.982,-0.318l-4.635,-9.035c-0.184,-0.36 -0.037,-0.795 0.32,-0.981c0.357,-0.185 0.797,-0.042 0.981,0.316l4.633,9.035l-0,-0Z" style="fill:#fff;fill-rule:nonzero;"/><path d="M64.947,26.61c-0.201,0.35 -0.646,0.471 -0.998,0.263c-0.349,-0.197 -0.468,-0.643 -0.263,-0.993l5.076,-8.791c0.201,-0.348 0.65,-0.472 0.995,-0.266c0.352,0.199 0.471,0.647 0.27,0.993l-5.08,8.794l0,0Z" style="fill:#fff;fill-rule:nonzero;"/><path d="M88.681,66.908c0,2.548 -2.064,4.617 -4.617,4.617c-2.553,0 -4.622,-2.067 -4.622,-4.617l0,-20.206c0,-2.553 2.067,-4.615 4.622,-4.615c2.552,-0 4.617,2.062 4.617,4.615l0,20.206Z" style="fill:#fff;fill-rule:nonzero;"/><path d="M32.491,66.908c0,2.548 -2.07,4.617 -4.615,4.617c-2.555,0 -4.621,-2.067 -4.621,-4.617l0,-20.206c0,-2.553 2.064,-4.615 4.621,-4.615c2.545,-0 4.615,2.062 4.615,4.615l0,20.206Z" style="fill:#fff;fill-rule:nonzero;"/><path d="M52.599,90.032c-0,2.549 -2.068,4.617 -4.624,4.617c-2.548,0 -4.612,-2.067 -4.612,-4.617l-0,-20.206c-0,-2.546 2.064,-4.62 4.612,-4.62c2.555,-0 4.624,2.074 4.624,4.62l-0,20.206Z" style="fill:#fff;fill-rule:nonzero;"/><path d="M68.616,90.032c0,2.549 -2.067,4.617 -4.622,4.617c-2.548,0 -4.617,-2.067 -4.617,-4.617l0,-20.206c0,-2.546 2.067,-4.62 4.617,-4.62c2.553,-0 4.622,2.074 4.622,4.62l0,20.206Z" style="fill:#fff;fill-rule:nonzero;"/><path d="M55.983,21.438c-11.232,0 -20.481,8.548 -21.717,19.535l43.432,-0c-1.233,-10.987 -10.477,-19.534 -21.715,-19.534l-0,-0.001Zm-9.799,11.843c-1.002,0 -1.811,-0.805 -1.811,-1.804c-0,-0.995 0.809,-1.801 1.811,-1.801c0.992,0 1.801,0.806 1.801,1.801c-0,0.999 -0.809,1.804 -1.801,1.804Zm19.636,0c-0.998,0 -1.808,-0.805 -1.808,-1.804c0,-0.995 0.81,-1.801 1.808,-1.801c1.002,0 1.804,0.806 1.804,1.801c0,0.999 -0.802,1.804 -1.804,1.804Z" style="fill:#fff;fill-rule:nonzero;"/></g></svg>