<?xml version="1.0" encoding="UTF-8" standalone="no"?><!DOCTYPE svg PUBLIC "-//W3C//DTD SVG 1.1//EN" "http://www.w3.org/Graphics/SVG/1.1/DTD/svg11.dtd"><svg width="100%" height="100%" viewBox="0 0 2125 488" version="1.1" xmlns="http://www.w3.org/2000/svg" xmlns:xlink="http://www.w3.org/1999/xlink" xml:space="preserve" xmlns:serif="http://www.serif.com/" style="fill-rule:evenodd;clip-rule:evenodd;stroke-linejoin:round;stroke-miterlimit:2;"><g><rect x="0" y="0" width="2127.97" height="499.118" style="fill:#4b32c3;"/></g><g><text x="405.561px" y="316.315px" style="font-family:'Verdana-Bold', 'Verdana', sans-serif;font-weight:700;font-size:173.613px;fill:#fff;">B O O T S T R A P</text><path d="M202.457,232.964l-22.469,-0l-0,-40.887l26.654,0c14.494,0 22.717,7.027 22.717,19.729c-0,13.566 -9.577,21.158 -26.926,21.158l0.024,-0Zm4.011,16.23l-26.467,0l0,45.058l27.631,-0c18.072,-0 27.645,-7.875 27.645,-22.679c0,-14.804 -9.845,-22.379 -28.809,-22.379Zm147.465,-14.211l0,16.391c-13.97,1.454 -22.504,12.705 -27.568,30.522c-5.043,17.751 -5.737,39.526 -5.203,56.336c0.558,17.496 -11.99,33.646 -28.946,33.646l-173.799,0c-16.966,0 -29.514,-16.15 -28.946,-33.646c0.534,-16.81 -0.16,-38.585 -5.199,-56.336c-5.078,-17.817 -13.626,-29.068 -27.596,-30.522l-0,-16.391c13.97,-1.454 22.529,-12.705 27.582,-30.525c5.053,-17.751 5.747,-39.523 5.203,-56.333c-0.558,-17.496 11.99,-33.646 28.956,-33.646l173.799,-0c16.97,-0 29.504,16.15 28.946,33.646c-0.534,16.81 0.16,38.582 5.203,56.333c5.064,17.82 13.598,29.071 27.568,30.525Zm-98.181,37.912c-0,-18.226 -11.802,-31.401 -29.329,-33.486l-0,-0.768c12.882,-2.274 22.989,-15.275 22.989,-29.782c-0,-20.684 -15.024,-34.156 -37.926,-34.156l-51.527,-0l0,136.895l51.785,0c27.474,0 44.008,-14.616 44.008,-38.703Z" style="fill:#fff;fill-rule:nonzero;"/></g></svg>