<?xml version="1.0" encoding="UTF-8" standalone="no"?><!DOCTYPE svg PUBLIC "-//W3C//DTD SVG 1.1//EN" "http://www.w3.org/Graphics/SVG/1.1/DTD/svg11.dtd"><svg width="100%" height="100%" viewBox="0 0 386 117" version="1.1" xmlns="http://www.w3.org/2000/svg" xmlns:xlink="http://www.w3.org/1999/xlink" xml:space="preserve" xmlns:serif="http://www.serif.com/" style="fill-rule:evenodd;clip-rule:evenodd;stroke-linejoin:round;stroke-miterlimit:2;"><g><rect x="0" y="0" width="385.417" height="116.667" style="fill:#4b32c3;"/></g><g><text x="106.344px" y="72.917px" style="font-family:'Verdana-Bold', 'Verdana', sans-serif;font-weight:700;font-size:41.667px;fill:#fff;">BOOTSRAP</text><path d="M55.481,53.335l-6.443,-0l0,-11.724l7.643,0c4.156,0 6.514,2.015 6.514,5.657c-0,3.89 -2.746,6.067 -7.721,6.067l0.007,-0Zm1.15,4.654l-7.589,-0l-0,12.92l7.923,-0c5.182,-0 7.927,-2.258 7.927,-6.503c0,-4.245 -2.823,-6.417 -8.261,-6.417Zm42.285,-4.075l0,4.7c-4.006,0.417 -6.453,3.643 -7.905,8.752c-1.446,5.09 -1.645,11.334 -1.492,16.154c0.16,5.017 -3.438,9.648 -8.3,9.648l-49.836,-0c-4.865,-0 -8.463,-4.631 -8.3,-9.648c0.153,-4.82 -0.046,-11.064 -1.491,-16.154c-1.456,-5.109 -3.907,-8.335 -7.913,-8.752l-0,-4.7c4.006,-0.417 6.46,-3.643 7.909,-8.753c1.449,-5.09 1.648,-11.333 1.492,-16.153c-0.16,-5.017 3.438,-9.648 8.303,-9.648l49.836,0c4.866,0 8.46,4.631 8.3,9.648c-0.153,4.82 0.046,11.063 1.492,16.153c1.452,5.11 3.899,8.336 7.905,8.753Zm-28.153,10.871c0,-5.226 -3.384,-9.004 -8.41,-9.602l0,-0.22c3.694,-0.652 6.592,-4.38 6.592,-8.54c-0,-5.931 -4.308,-9.794 -10.875,-9.794l-14.775,0l0,39.254l14.849,0c7.878,0 12.619,-4.191 12.619,-11.098Z" style="fill:#fff;fill-rule:nonzero;"/></g></svg>