<?xml version="1.0" encoding="UTF-8" standalone="no"?><!DOCTYPE svg PUBLIC "-//W3C//DTD SVG 1.1//EN" "http://www.w3.org/Graphics/SVG/1.1/DTD/svg11.dtd"><svg width="100%" height="100%" viewBox="0 0 625 117" version="1.1" xmlns="http://www.w3.org/2000/svg" xmlns:xlink="http://www.w3.org/1999/xlink" xml:space="preserve" xmlns:serif="http://www.serif.com/" style="fill-rule:evenodd;clip-rule:evenodd;stroke-linejoin:round;stroke-miterlimit:2;"><g><rect x="0" y="0" width="625.43" height="116.667" style="fill:#ff9a00;"/></g><g><text x="112.769px" y="74.453px" style="font-family:'Verdana-Bold', 'Verdana', sans-serif;font-weight:700;font-size:41.667px;fill:#fff;">C R U N C H Y R O L L</text><path d="M30.924,61.717c0,-18.153 14.705,-32.793 32.858,-32.793c17.112,0.065 31.296,13.208 32.662,30.255l0,-2.082c0,-20.625 -16.721,-37.347 -37.347,-37.347c-20.625,0 -37.347,16.787 -37.347,37.412c0,20.626 16.722,37.282 37.347,37.282l2.473,0c-17.177,-1.171 -30.581,-15.485 -30.646,-32.727Z" style="fill:#fff;fill-rule:nonzero;"/><path d="M81.48,63.343c-6.637,0 -11.972,-5.335 -12.037,-11.906c-0,-5.075 3.123,-9.565 7.872,-11.322c-3.708,-1.952 -7.807,-2.993 -12.037,-2.928c-14.444,0 -26.156,11.712 -26.156,26.156c0,14.445 11.712,26.157 26.156,26.157c14.445,-0 26.156,-11.712 26.156,-26.157c0.066,-1.691 -0.065,-3.318 -0.39,-5.01c-2.017,3.319 -5.726,5.206 -9.564,5.01Z" style="fill:#fff;fill-rule:nonzero;"/></g></svg>