<?xml version="1.0" encoding="UTF-8" standalone="no"?><!DOCTYPE svg PUBLIC "-//W3C//DTD SVG 1.1//EN" "http://www.w3.org/Graphics/SVG/1.1/DTD/svg11.dtd"><svg width="100%" height="100%" viewBox="0 0 834 117" version="1.1" xmlns="http://www.w3.org/2000/svg" xmlns:xlink="http://www.w3.org/1999/xlink" xml:space="preserve" xmlns:serif="http://www.serif.com/" style="fill-rule:evenodd;clip-rule:evenodd;stroke-linejoin:round;stroke-miterlimit:2;"><g><rect x="0" y="0" width="832.426" height="116.667" style="fill:#999;"/><g id="Livello-1" serif:id="Livello 1"></g><g id="Livello-2" serif:id="Livello 2"><path id="path21" d="M65.582,44.466c-0,-0 5.583,-0.884 6.863,2.412c1.279,3.296 1.855,5.33 -0.832,7.013c-2.687,1.683 -18.742,8.977 -18.742,8.977c-0,0 -12.09,5.4 -19.638,-5.61c-7.549,-11.011 0.639,-19.217 0.639,-19.217c0,0 2.687,-3.086 9.339,-5.961c6.653,-2.875 17.911,-7.294 17.911,-7.294c0,0 10.491,-2.524 18.167,0.632c7.676,3.155 12.666,9.818 12.666,9.818c-0,0 5.629,6.733 5.373,15.149c-0.262,8.608 -2.367,10.169 -2.367,10.169c0,-0 -4.094,9.608 -14.009,13.605c-9.915,3.998 -12.345,5.541 -12.345,5.541l4.349,7.504c0,0 2.495,5.54 -2.622,7.224c-5.118,1.683 -7.612,-2.315 -7.612,-2.315l-10.491,-17.042l26.291,-12.694c-0,0 8.443,-6.452 7.612,-13.044c-0.8,-6.337 -3.902,-10.59 -8.06,-13.115c-4.862,-3.296 -9.148,-2.455 -9.148,-2.455c0,0 -4.669,0.772 -10.17,3.296c-6.141,2.525 -13.881,6.312 -13.881,6.312c-0,0 -4.67,1.613 -3.327,5.681c1.344,4.068 5.374,3.717 5.374,3.717l18.66,-8.303Z" style="fill:#fff;fill-rule:nonzero;"/></g></g><g><text x="118.073px" y="74.601px" style="font-family:'Verdana-Bold', 'Verdana', sans-serif;font-weight:700;font-size:41.667px;fill:#fff;">C L I P  S T U D I O  P A I N T</text></g></svg>