<?xml version="1.0" encoding="UTF-8" standalone="no"?><!DOCTYPE svg PUBLIC "-//W3C//DTD SVG 1.1//EN" "http://www.w3.org/Graphics/SVG/1.1/DTD/svg11.dtd"><svg width="100%" height="100%" viewBox="0 0 584 117" version="1.1" xmlns="http://www.w3.org/2000/svg" xmlns:xlink="http://www.w3.org/1999/xlink" xml:space="preserve" xmlns:serif="http://www.serif.com/" style="fill-rule:evenodd;clip-rule:evenodd;stroke-linejoin:round;stroke-miterlimit:2;"><g><rect x="0" y="0" width="583.046" height="116.667" style="fill:#825794;"/><path d="M59.813,88.779c-3.693,-0.532 -6.929,-1.526 -10.088,-3.097c-15.844,-7.885 -22.435,-26.901 -14.872,-42.912c6.427,-13.604 21.622,-20.966 36.433,-17.652c12.394,2.775 21.902,12.492 24.626,25.169c0.507,2.364 0.701,7.751 0.371,10.38c-0.45,3.603 -1.529,7.151 -3.18,10.465c-1.773,3.558 -3.56,5.95 -6.704,8.972c-4.745,4.562 -10.078,7.251 -16.869,8.506c-2.102,0.389 -7.533,0.483 -9.717,0.169l-0,0Zm7.921,-12.604c1.92,-0.38 4.499,-1.657 5.727,-2.833c1.213,-1.164 2.313,-2.859 2.81,-4.329c0.212,-0.628 0.386,-1.209 0.386,-1.29c-0,-0.082 -5.592,-0.15 -12.426,-0.15l-12.426,0l0.112,0.694c0.18,1.115 1.352,3.275 2.395,4.421c1.607,1.761 3.695,2.914 6.334,3.495c1.548,0.342 5.345,0.337 7.088,-0.008Z" style="fill:#fff;fill-rule:nonzero;"/></g><g><text x="114.237px" y="75.9px" style="font-family:'Verdana-Bold', 'Verdana', sans-serif;font-weight:700;font-size:41.667px;fill:#fff;">F U N I M A T I O N</text></g></svg>