<?xml version="1.0" encoding="UTF-8" standalone="no"?><!DOCTYPE svg PUBLIC "-//W3C//DTD SVG 1.1//EN" "http://www.w3.org/Graphics/SVG/1.1/DTD/svg11.dtd"><svg width="100%" height="100%" viewBox="0 0 730 88" version="1.1" xmlns="http://www.w3.org/2000/svg" xmlns:xlink="http://www.w3.org/1999/xlink" xml:space="preserve" xmlns:serif="http://www.serif.com/" style="fill-rule:evenodd;clip-rule:evenodd;stroke-linejoin:round;stroke-miterlimit:2;"><rect x="0" y="0" width="729.352" height="87.5" style="fill:#7a59f7;"/><g><text x="88.033px" y="57.032px" style="font-family:'Verdana-Bold', 'Verdana', sans-serif;font-weight:700;font-size:31.25px;fill:#fff;">J A P A N E S E  F O U N D A T I O N</text></g><path d="M32.342,39.539c-0,5.459 1.682,11.212 6.138,16.923c3.196,4.073 9.797,11.086 20.476,11.169c11.058,0.084 14.758,-7.222 12.361,-12.849c-2.102,-4.913 -10.427,-9.238 -19.55,-8.314c3.826,-2.52 8.282,-3.905 9.544,-4.115c0.21,-0.042 0.21,-0.21 -0,-0.21c-12.319,1.302 -20.182,7.054 -22.41,8.398c-0.168,0.084 -0.084,0.252 0.042,0.21c1.892,-0.294 12.908,-2.058 19.13,1.344c7.148,3.863 2.523,13.017 -6.811,9.7c-4.499,-1.596 -10.175,-5.081 -13.58,-10.792c-3.448,-5.711 -2.397,-15.663 -0.631,-19.778c2.859,-6.593 8.03,-6.928 10.091,-4.913c1.976,1.932 1.345,5.711 -2.397,10.708c-3.279,4.367 -9.124,11.757 -11.983,15.957c-2.859,4.199 -4.919,7.936 -3.952,13.563c1.177,6.886 7.694,9.7 9.67,1.008c1.304,-5.753 -0.798,-9.91 -2.102,-12.598c-0.967,-2.015 -2.523,-4.577 -5.424,-7.852c-3.658,-4.157 -7.694,-6.005 -11.226,-3.821c-2.312,1.427 -3.153,5.626 0.505,8.062c4.204,2.813 9.46,2.057 11.815,1.344c0.168,-0.042 0.168,-0.252 -0.043,-0.21c-2.48,0.378 -7.147,-0.546 -9.165,-2.142c-3.406,-2.687 -0.799,-7.936 6.012,-2.813c4.793,3.611 9.082,10.665 6.223,18.476c-1.346,3.653 -3.784,2.771 -4.583,-1.218c-0.421,-1.973 -0.337,-4.367 0.925,-7.264c1.64,-3.822 4.877,-6.425 10.175,-10.162c7.021,-4.913 14.589,-10.96 17.743,-18.896c2.733,-6.845 -0.253,-14.739 -7.022,-14.739c-11.772,0.042 -19.971,12.345 -19.971,25.824" style="fill:#fff;fill-rule:nonzero;"/></svg>