<?xml version="1.0" encoding="UTF-8" standalone="no"?><!DOCTYPE svg PUBLIC "-//W3C//DTD SVG 1.1//EN" "http://www.w3.org/Graphics/SVG/1.1/DTD/svg11.dtd"><svg width="100%" height="100%" viewBox="0 0 268 88" version="1.1" xmlns="http://www.w3.org/2000/svg" xmlns:xlink="http://www.w3.org/1999/xlink" xml:space="preserve" xmlns:serif="http://www.serif.com/" style="fill-rule:evenodd;clip-rule:evenodd;stroke-linejoin:round;stroke-miterlimit:2;"><clipPath id="_clip1"><rect x="0" y="0" width="267.375" height="87.5"/></clipPath><g clip-path="url(#_clip1)"><rect x="0" y="0" width="340.625" height="87.5" style="fill:#ffca28;"/></g><text x="113.672px" y="60.688px" style="font-family:'Verdana-Bold', 'Verdana', sans-serif;font-weight:700;font-size:31.25px;fill:#333;">N A N I</text><path d="M92.326,56.611c0.989,-0.756 1.949,-1.512 2.879,-2.327c0.902,-0.814 1.803,-1.657 2.472,-2.53c0.175,-0.203 0.32,-0.436 0.437,-0.64c0.116,-0.203 0.203,-0.378 0.232,-0.436c0,-0.029 0,0 0.029,0.146c0.029,0.116 0.175,0.32 0.291,0.407c0.116,0.087 0.175,0.058 0.146,0.058c-0.03,-0 -0.088,-0.029 -0.175,-0.029c-0.174,-0.029 -0.436,-0 -0.698,0.029c-0.262,0.029 -0.552,0.087 -0.814,0.145c-0.553,0.117 -1.134,0.32 -1.716,0.495l-0.058,0.029c-0.669,0.233 -1.396,-0.116 -1.629,-0.785c-0.145,-0.378 -0.058,-0.786 0.146,-1.105c0.698,-1.106 1.396,-2.211 2.035,-3.345c0.32,-0.552 0.611,-1.134 0.873,-1.687c0.262,-0.552 0.494,-1.134 0.581,-1.599c0.03,-0.116 0.03,-0.204 0.03,-0.262c-0,-0.058 -0.03,-0.058 0.058,0.058c0.029,0.058 0.087,0.117 0.174,0.146c0.029,0.029 0.058,0.029 0.087,0.029l-0.029,-0c-0.174,0.029 -0.436,0.116 -0.698,0.203c-0.261,0.117 -0.523,0.233 -0.814,0.378c-1.105,0.582 -2.181,1.338 -3.228,2.094c-0.407,0.32 -1.018,0.262 -1.338,-0.174c-0.174,-0.204 -0.232,-0.465 -0.203,-0.727l-0,-0.058c0.174,-1.105 0.232,-2.24 0.203,-3.374c0,-0.552 -0.058,-1.105 -0.116,-1.658c-0.058,-0.523 -0.175,-1.076 -0.32,-1.512c-0.087,-0.203 -0.174,-0.407 -0.233,-0.436c-0.029,-0.029 -0.029,0 0.088,0.058c0.116,0.058 0.32,0.058 0.378,0.029c0.087,-0.029 0.058,-0.029 0.029,0.029c-0.029,0.029 -0.087,0.088 -0.146,0.175c-0.116,0.145 -0.261,0.349 -0.378,0.581c-0.494,0.902 -0.93,1.978 -1.279,3.054c-0.262,0.669 -0.989,0.989 -1.658,0.756c-0.291,-0.116 -0.523,-0.32 -0.669,-0.581c-3.49,-6.602 -7.619,-12.855 -12.447,-18.526c-2.414,-2.82 -5.002,-5.496 -7.823,-7.881c-1.396,-1.192 -2.85,-2.326 -4.391,-3.315c-0.756,-0.494 -1.541,-0.96 -2.327,-1.367c-0.785,-0.407 -1.599,-0.756 -2.326,-0.901c-0.175,-0.029 -0.349,-0.059 -0.466,-0.059c-0.116,0 -0.203,0.03 -0.116,0c0.029,-0.029 0.116,-0.058 0.204,-0.174c0.058,-0.087 0.116,-0.204 0.116,-0.233c0,-0.087 0,0 0.029,0.117c0.029,0.116 0.087,0.261 0.175,0.436c0.029,0.087 0.087,0.174 0.145,0.262l0.174,0.29c0.262,0.408 0.495,0.844 0.728,1.251c0.93,1.687 1.774,3.402 2.588,5.147c1.599,3.461 3.053,6.98 4.391,10.557c1.338,3.577 2.559,7.183 3.519,10.906c0.233,0.93 0.465,1.861 0.64,2.85c0.087,0.494 0.174,0.959 0.233,1.454c0.058,0.494 0.116,0.989 0.145,1.57c-0,1.164 -0.291,2.298 -0.814,3.316c-0.524,1.017 -1.28,1.919 -2.24,2.588c-0.959,0.669 -2.123,1.105 -3.315,1.134c-0.611,0.029 -1.192,-0.058 -1.745,-0.174c-0.552,-0.117 -1.047,-0.291 -1.512,-0.495c-1.92,-0.785 -3.577,-1.803 -5.177,-2.879c-3.199,-2.181 -6.136,-4.595 -9.044,-7.067c-2.879,-2.501 -5.671,-5.06 -8.405,-7.706c-2.792,-2.618 -5.467,-5.293 -8.084,-8.056l-0.989,-1.047l-0.233,-0.262l-0.116,-0.145l-0.058,-0.087c-0.088,-0.088 -0.175,-0.146 -0.175,-0.146c0,0 0.029,0 0.058,0.029c0.058,0 0.117,0 0.175,-0.029c0.116,-0.029 0.087,-0.058 0.058,0c-0.087,0.116 -0.262,0.465 -0.32,0.814c-0.174,0.727 -0.233,1.6 -0.233,2.472c0,0.873 0.088,1.774 0.204,2.676c0.494,3.577 1.57,7.154 2.879,10.644c1.309,3.49 2.85,6.863 4.566,10.178c1.716,3.316 3.577,6.573 5.525,9.743c0.378,0.611 0.175,1.396 -0.407,1.745c-0.232,0.145 -0.523,0.203 -0.785,0.174c-1.57,-0.087 -3.228,-0.145 -4.769,-0.058c-0.378,0.029 -0.756,0.058 -1.105,0.116c-0.175,0.029 -0.349,0.059 -0.466,0.088c-0.09,0.018 -0.178,0.048 -0.262,0.087c-0.083,0.039 0.03,-0 0.117,-0.087c0.029,-0.029 0.087,-0.117 0.145,-0.204c0.058,-0.087 0.087,-0.233 0.117,-0.349c0.029,-0.262 -0.059,-0.436 -0.088,-0.494c-0.029,-0.058 -0.029,-0.058 -0.029,-0.029c0.029,0.029 0.146,0.116 0.262,0.203c0.116,0.087 0.262,0.175 0.407,0.262c0.611,0.378 1.338,0.698 2.036,1.018c0.727,0.32 1.483,0.611 2.239,0.901c1.512,0.582 3.054,1.105 4.624,1.629c0.843,0.291 1.28,1.163 1.018,2.007c-0.175,0.523 -0.582,0.901 -1.076,1.017l-0.058,0.029c-1.716,0.408 -3.49,0.902 -5.148,1.455c-0.843,0.29 -1.657,0.581 -2.355,0.93c-0.175,0.087 -0.32,0.175 -0.466,0.262c-0.058,0.029 -0.116,0.087 -0.145,0.087c-0.029,0.029 -0.029,0.029 -0,-0.029c0.029,-0.029 0.058,-0.087 0.116,-0.203c0.029,-0.117 0.058,-0.291 0.029,-0.524c-0.029,-0.204 -0.116,-0.378 -0.203,-0.465c-0.058,-0.088 -0.146,-0.146 -0.175,-0.175c-0.058,-0.058 -0.058,-0.029 -0.029,-0.029c0.029,0.029 0.087,0.029 0.175,0.058c0.291,0.088 0.698,0.175 1.105,0.233c0.407,0.058 0.843,0.116 1.279,0.145c0.873,0.059 1.774,0.117 2.676,0.146c1.803,0.058 3.606,0.029 5.438,-0c0.698,-0 1.28,0.581 1.28,1.279c-0,0.495 -0.262,0.902 -0.669,1.135c-0.756,0.407 -1.512,0.843 -2.239,1.308c-0.727,0.466 -1.425,0.96 -2.036,1.483c-0.291,0.262 -0.582,0.524 -0.785,0.786c-0.117,0.116 -0.175,0.232 -0.233,0.349c-0.058,0.087 -0.058,0.145 -0.029,0.058c0.029,-0.058 0,-0.117 0,-0.204c-0.029,-0.087 -0.058,-0.174 -0.087,-0.232c-0.087,-0.117 -0.087,-0.088 -0.029,-0.088c0.145,0.058 0.494,0.146 0.843,0.175c0.727,0.058 1.57,0.029 2.385,-0.029c0.843,-0.058 1.687,-0.175 2.559,-0.32c1.716,-0.291 3.432,-0.64 5.147,-1.076c0.582,-0.146 1.164,0.203 1.309,0.785c0.146,0.582 -0.203,1.134 -0.785,1.309l-0.087,0.029c-1.745,0.465 -3.519,0.872 -5.293,1.192c-0.902,0.175 -1.803,0.291 -2.734,0.378c-0.931,0.087 -1.861,0.146 -2.85,0.058c-0.494,-0.058 -0.989,-0.116 -1.57,-0.378c-0.291,-0.116 -0.582,-0.32 -0.873,-0.669c-0.291,-0.349 -0.407,-0.872 -0.349,-1.279c0.058,-0.407 0.204,-0.727 0.349,-0.989c0.146,-0.262 0.32,-0.494 0.495,-0.698c0.349,-0.407 0.698,-0.756 1.076,-1.076c1.483,-1.28 3.053,-2.239 4.653,-3.17l0.61,2.414c-1.832,0.058 -3.693,0.116 -5.554,0.087c-0.931,0 -1.861,-0.029 -2.821,-0.087c-0.465,-0.029 -0.96,-0.058 -1.454,-0.145c-0.495,-0.059 -0.989,-0.146 -1.571,-0.291c-0.145,-0.029 -0.29,-0.088 -0.465,-0.175c-0.174,-0.087 -0.349,-0.174 -0.582,-0.349c-0.116,-0.087 -0.232,-0.203 -0.378,-0.378c-0.116,-0.174 -0.261,-0.436 -0.29,-0.727c-0.059,-0.291 -0,-0.552 0.087,-0.756c0.087,-0.204 0.174,-0.349 0.232,-0.465c0.175,-0.233 0.32,-0.378 0.466,-0.495c0.145,-0.116 0.261,-0.203 0.407,-0.291c0.262,-0.174 0.494,-0.29 0.727,-0.407c0.931,-0.465 1.803,-0.785 2.705,-1.105c1.774,-0.611 3.548,-1.134 5.38,-1.599l-0.117,2.443c-1.599,-0.495 -3.17,-1.018 -4.769,-1.6c-0.785,-0.291 -1.57,-0.582 -2.385,-0.931c-0.785,-0.349 -1.599,-0.697 -2.414,-1.163c-0.203,-0.116 -0.407,-0.262 -0.639,-0.407c-0.233,-0.174 -0.466,-0.349 -0.727,-0.611c-0.117,-0.145 -0.262,-0.32 -0.408,-0.581c-0.145,-0.262 -0.29,-0.669 -0.261,-1.222c0.029,-0.261 0.116,-0.523 0.232,-0.756c0.117,-0.203 0.262,-0.378 0.378,-0.523c0.262,-0.262 0.466,-0.378 0.669,-0.495c0.378,-0.203 0.669,-0.291 0.96,-0.349c0.262,-0.087 0.523,-0.116 0.756,-0.174c0.495,-0.087 0.931,-0.146 1.396,-0.175c1.803,-0.145 3.461,-0.116 5.206,-0.029l-1.803,2.908c-2.007,-3.257 -3.897,-6.572 -5.642,-9.975c-1.745,-3.402 -3.345,-6.921 -4.711,-10.527c-0.669,-1.803 -1.309,-3.665 -1.833,-5.526c-0.523,-1.89 -0.959,-3.809 -1.221,-5.787c-0.116,-0.96 -0.233,-1.978 -0.233,-3.025c0,-1.046 0.029,-2.123 0.32,-3.315c0.087,-0.291 0.175,-0.611 0.32,-0.93c0.145,-0.32 0.32,-0.669 0.611,-1.047c0.145,-0.175 0.32,-0.378 0.581,-0.582c0.233,-0.175 0.553,-0.378 0.902,-0.494c0.349,-0.117 0.756,-0.146 1.105,-0.117c0.349,0.029 0.698,0.146 0.96,0.262c0.523,0.233 0.872,0.553 1.134,0.814l0.32,0.32l0.233,0.262l0.93,1.018c2.559,2.704 5.206,5.351 7.91,7.968c2.705,2.588 5.439,5.148 8.26,7.59c2.821,2.443 5.7,4.799 8.724,6.835c1.512,1.018 3.054,1.948 4.566,2.559c0.378,0.145 0.756,0.262 1.076,0.349c0.349,0.087 0.611,0.116 0.902,0.116c0.552,-0.029 1.105,-0.203 1.628,-0.552c0.494,-0.349 0.931,-0.873 1.251,-1.454c0.29,-0.582 0.465,-1.222 0.465,-1.833l-0,-0.261l-0.029,-0.291c-0,-0.204 -0.058,-0.407 -0.058,-0.611c-0.058,-0.436 -0.117,-0.843 -0.204,-1.279c-0.174,-0.873 -0.378,-1.745 -0.611,-2.647c-0.93,-3.548 -2.123,-7.096 -3.431,-10.586c-1.309,-3.489 -2.734,-6.95 -4.275,-10.324c-0.785,-1.686 -1.6,-3.344 -2.472,-4.944c-0.233,-0.407 -0.436,-0.785 -0.669,-1.192l-0.175,-0.32c-0.087,-0.116 -0.145,-0.262 -0.232,-0.407c-0.146,-0.291 -0.291,-0.582 -0.407,-0.96c-0.059,-0.203 -0.117,-0.407 -0.146,-0.669c-0.029,-0.261 -0.029,-0.552 0.029,-0.901c0.058,-0.349 0.233,-0.785 0.495,-1.134c0.29,-0.349 0.639,-0.611 0.988,-0.756c0.32,-0.146 0.611,-0.204 0.873,-0.233c0.262,-0.029 0.465,-0.029 0.669,-0.029c0.407,0.029 0.727,0.058 1.047,0.145c0.61,0.146 1.134,0.32 1.657,0.524c0.495,0.203 0.989,0.436 1.425,0.669c0.931,0.465 1.774,0.988 2.618,1.541c1.657,1.105 3.199,2.297 4.682,3.548c2.966,2.53 5.671,5.322 8.172,8.23c5.002,5.875 9.248,12.331 12.825,19.107l-3.403,0.232c0.233,-0.581 0.495,-1.134 0.786,-1.715c0.29,-0.582 0.581,-1.164 0.988,-1.745c0.204,-0.291 0.408,-0.611 0.698,-0.931c0.146,-0.174 0.32,-0.32 0.553,-0.494c0.233,-0.175 0.494,-0.378 0.96,-0.495c0.232,-0.058 0.494,-0.116 0.785,-0.087c0.291,0 0.581,0.087 0.814,0.204c0.494,0.232 0.756,0.552 0.931,0.785c0.349,0.494 0.494,0.901 0.61,1.279c0.204,0.757 0.291,1.425 0.32,2.065c0.029,0.669 0.058,1.28 0.029,1.92c-0.058,1.25 -0.203,2.501 -0.465,3.751l-2.036,-1.25c1.076,-0.815 2.152,-1.658 3.403,-2.385c0.32,-0.175 0.64,-0.349 0.989,-0.523c0.349,-0.175 0.727,-0.32 1.25,-0.437c0.262,-0.058 0.582,-0.087 1.018,0l0.349,0.088c0.116,0.058 0.233,0.116 0.378,0.174c0.233,0.145 0.465,0.378 0.611,0.611c0.291,0.465 0.32,0.872 0.349,1.163c-0,0.32 -0,0.553 -0.058,0.785c-0.058,0.466 -0.175,0.844 -0.291,1.193c-0.116,0.378 -0.262,0.698 -0.378,1.047c-0.291,0.668 -0.582,1.279 -0.902,1.919c-0.61,1.221 -1.279,2.414 -1.977,3.577l-1.92,-2.327c0.64,-0.203 1.309,-0.378 2.007,-0.494c0.349,-0.058 0.698,-0.116 1.076,-0.174c0.378,-0.03 0.756,-0.059 1.221,-0.03c0.233,0.03 0.466,0.059 0.727,0.117c0.262,0.087 0.582,0.203 0.902,0.436c0.32,0.262 0.582,0.669 0.64,1.047c0.087,0.378 0.029,0.698 -0.029,0.96c-0.117,0.494 -0.32,0.843 -0.524,1.192c-0.203,0.32 -0.407,0.611 -0.64,0.872c-0.901,1.076 -1.89,1.92 -2.908,2.763c-1.018,0.815 -2.065,1.571 -3.141,2.298l-0.116,0.087c-0.494,0.32 -1.163,0.204 -1.483,-0.291c-0.407,-0.494 -0.32,-1.134 0.145,-1.483Z" style="fill:#333;fill-rule:nonzero;"/><path d="M50.856,61.962c-0.96,-0.465 -1.92,-0.931 -2.879,-1.454c-0.466,-0.262 -0.931,-0.553 -1.396,-0.843c-0.466,-0.291 -0.931,-0.64 -1.396,-1.047c-0.233,-0.204 -0.466,-0.437 -0.669,-0.815c-0.116,-0.174 -0.204,-0.407 -0.262,-0.698c-0.058,-0.29 -0.029,-0.698 0.146,-1.047c0.174,-0.349 0.407,-0.552 0.61,-0.698c0.204,-0.145 0.407,-0.232 0.582,-0.319c0.349,-0.146 0.669,-0.233 0.989,-0.291c0.61,-0.117 1.192,-0.175 1.745,-0.233l0.814,-0.058c0.116,-0 0.262,-0.029 0.349,-0.029c0.058,-0 0.087,-0 0.116,-0.029l-0.029,-0c-0.029,-0 -0.058,-0 -0.145,0.029c-0.029,-0 -0.058,0.029 -0.088,0.029c-0.029,-0 -0.087,0.029 -0.145,0.087c-0.029,0.029 -0.058,0.029 -0.087,0.058c-0.058,0.029 -0.117,0.088 -0.175,0.146l-0.203,0.203c-0.087,0.117 -0.146,0.233 -0.204,0.378l-0.029,0.059l0.407,1.512l-1.686,-1.571c-0.582,-0.552 -1.135,-1.105 -1.687,-1.657c-1.105,-1.135 -2.181,-2.298 -3.199,-3.519c-1.018,-1.222 -1.978,-2.53 -2.792,-3.926c-0.814,-1.396 -1.541,-2.938 -1.803,-4.682c-0.058,-0.437 0.233,-0.815 0.669,-0.902c0.407,-0.058 0.785,0.204 0.872,0.611l0,0.029c0.32,1.396 1.047,2.704 1.891,3.926c0.843,1.221 1.832,2.356 2.879,3.461c1.047,1.105 2.152,2.123 3.286,3.14l1.745,1.484l1.803,1.454c0.436,0.349 0.611,0.93 0.436,1.454l-0.058,0.116c-0.058,0.146 -0.116,0.262 -0.204,0.378c-0.058,0.058 -0.087,0.117 -0.116,0.146l-0.087,0.087c-0.058,0.058 -0.117,0.116 -0.175,0.145c-0.029,0.029 -0.058,0.029 -0.116,0.058c-0.058,0.029 -0.145,0.088 -0.175,0.088c-0.029,0.029 -0.087,0.029 -0.116,0.029c-0.116,0.029 -0.174,0.058 -0.233,0.058c-0.116,0.029 -0.174,0.029 -0.232,0.029l-1.512,-0c-0.495,-0 -0.989,0.029 -1.396,0.087c-0.204,0.029 -0.378,0.058 -0.495,0.117c-0.058,0.029 -0.087,0.029 -0.058,0.029c0.029,-0 0.116,-0.088 0.204,-0.262c0.116,-0.175 0.116,-0.407 0.116,-0.524l-0.029,-0.116c0.029,0.029 0.116,0.175 0.262,0.32c0.261,0.291 0.639,0.582 1.017,0.872c0.379,0.291 0.786,0.582 1.222,0.873c0.843,0.552 1.716,1.105 2.617,1.599c0.436,0.262 0.611,0.844 0.349,1.28c-0.232,0.436 -0.785,0.582 -1.221,0.378l-0.029,-0.029Zm22.015,-34.258c0.93,1.25 1.832,2.559 2.646,3.897c0.814,1.337 1.541,2.762 2.181,4.246c0.611,1.483 1.134,2.995 1.512,4.565c0.349,1.571 0.553,3.228 0.553,4.857l-2.268,-0.756c0.552,-0.814 1.105,-1.512 1.861,-2.268c0.203,-0.175 0.407,-0.379 0.698,-0.582c0.145,-0.087 0.32,-0.204 0.581,-0.291c0.059,-0.029 0.146,-0.029 0.233,-0.058l0.116,-0.029l0.146,-0c0.203,-0 0.465,0.029 0.727,0.145c0.262,0.117 0.465,0.291 0.582,0.466c0.058,0.087 0.116,0.174 0.174,0.232c0.029,0.087 0.087,0.146 0.116,0.204c0.117,0.262 0.146,0.465 0.175,0.64c0.058,0.349 0.029,0.639 0.029,0.901c-0.087,1.047 -0.291,1.949 -0.494,2.85c-0.204,0.902 -0.466,1.774 -0.698,2.647c-0.146,0.552 -0.727,0.843 -1.28,0.698c-0.553,-0.146 -0.843,-0.728 -0.698,-1.251l0,-0.029c0.233,-0.843 0.465,-1.716 0.669,-2.559c0.203,-0.844 0.378,-1.716 0.407,-2.501l0,-0.524c0,-0.058 -0.029,-0.116 -0.029,-0.116l-0,0.029c-0,0 0.029,0.029 0.029,0.058c0.029,0.029 0.087,0.087 0.175,0.146c0.087,0.029 0.174,0.058 0.203,0.058l0.087,-0c0,-0 -0.058,0.029 -0.087,0.058c-0.116,0.087 -0.262,0.203 -0.378,0.32c-0.553,0.552 -1.105,1.25 -1.57,1.948c-0.233,0.407 -0.757,0.582 -1.193,0.32c-0.291,-0.145 -0.436,-0.436 -0.436,-0.727l0,-0.145c-0.029,-1.483 -0.233,-2.938 -0.582,-4.392c-0.349,-1.425 -0.843,-2.821 -1.454,-4.187c-0.61,-1.367 -1.308,-2.676 -2.094,-3.926c-0.785,-1.251 -1.657,-2.472 -2.559,-3.665c-0.407,-0.523 -0.291,-1.25 0.204,-1.628c0.523,-0.407 1.25,-0.291 1.628,0.203l0.088,0.146Z" style="fill:#333;fill-rule:nonzero;"/></svg>