<?xml version="1.0" encoding="UTF-8" standalone="no"?><!DOCTYPE svg PUBLIC "-//W3C//DTD SVG 1.1//EN" "http://www.w3.org/Graphics/SVG/1.1/DTD/svg11.dtd"><svg width="100%" height="100%" viewBox="0 0 459 117" version="1.1" xmlns="http://www.w3.org/2000/svg" xmlns:xlink="http://www.w3.org/1999/xlink" xml:space="preserve" xmlns:serif="http://www.serif.com/" style="fill-rule:evenodd;clip-rule:evenodd;stroke-linejoin:round;stroke-miterlimit:2;"><g><rect x="0" y="0" width="458.333" height="116.667" style="fill:#0288a6;"/></g><g><text x="129.061px" y="74.631px" style="font-family:'Verdana-Bold', 'Verdana', sans-serif;font-weight:700;font-size:41.667px;fill:#fff;">N E T L I F Y</text></g><path d="M84.296,43.043l-0.03,-0.012c-0.017,-0.007 -0.034,-0.013 -0.049,-0.028c-0.05,-0.054 -0.072,-0.127 -0.06,-0.199l1.653,-10.11l7.755,7.757l-8.065,3.431c-0.022,0.009 -0.046,0.013 -0.07,0.013l-0.032,-0c-0.016,-0.011 -0.031,-0.023 -0.044,-0.037c-0.3,-0.334 -0.658,-0.61 -1.058,-0.815Zm11.248,-0.616l8.292,8.292c1.722,1.724 2.584,2.584 2.898,3.581c0.048,0.148 0.086,0.295 0.116,0.447l-19.816,-8.392c-0.011,-0.004 -0.021,-0.009 -0.032,-0.013c-0.079,-0.032 -0.171,-0.068 -0.171,-0.15c-0,-0.081 0.094,-0.12 0.173,-0.152l0.026,-0.01l8.514,-3.603Zm10.968,14.981c-0.428,0.805 -1.262,1.639 -2.674,3.053l-9.349,9.347l-12.091,-2.518l-0.064,-0.013c-0.107,-0.017 -0.22,-0.037 -0.22,-0.133c-0.093,-1.008 -0.601,-1.933 -1.401,-2.552c-0.05,-0.049 -0.037,-0.126 -0.022,-0.197c-0,-0.01 -0,-0.021 0.004,-0.03l2.275,-13.961l0.008,-0.047c0.013,-0.107 0.032,-0.231 0.129,-0.231c0.984,-0.122 1.878,-0.635 2.481,-1.422c0.019,-0.022 0.032,-0.045 0.058,-0.058c0.068,-0.032 0.149,-0 0.22,0.03l20.644,8.732l0.002,0Zm-14.172,14.55l-15.373,15.372l2.631,-16.172l0.004,-0.022c0.002,-0.021 0.007,-0.042 0.013,-0.062c0.022,-0.051 0.078,-0.073 0.131,-0.094l0.026,-0.011c0.576,-0.246 1.085,-0.625 1.486,-1.106c0.052,-0.06 0.114,-0.118 0.193,-0.128c0.021,-0.004 0.041,-0.004 0.062,-0l10.825,2.225l0.002,-0.002Zm-18.627,18.626l-1.733,1.733l-19.157,-27.686c-0.007,-0.01 -0.014,-0.021 -0.021,-0.03c-0.03,-0.041 -0.062,-0.082 -0.056,-0.129c0.002,-0.034 0.024,-0.064 0.047,-0.09l0.022,-0.027c0.058,-0.086 0.107,-0.171 0.16,-0.264l0.043,-0.074l0.006,-0.007c0.03,-0.051 0.058,-0.1 0.11,-0.128c0.044,-0.022 0.106,-0.013 0.156,-0.003l21.223,4.378c0.059,0.009 0.115,0.033 0.163,0.07c0.027,0.028 0.034,0.058 0.04,0.092c0.3,1.135 1.115,2.066 2.199,2.514c0.06,0.03 0.035,0.096 0.007,0.166c-0.014,0.031 -0.025,0.064 -0.032,0.097c-0.267,1.626 -2.561,15.612 -3.177,19.388Zm-3.619,3.617c-1.278,1.265 -2.03,1.934 -2.882,2.204c-0.84,0.265 -1.741,0.265 -2.58,-0c-0.997,-0.317 -1.859,-1.177 -3.581,-2.901l-19.239,-19.238l5.026,-7.793c0.021,-0.04 0.05,-0.074 0.085,-0.101c0.054,-0.039 0.131,-0.022 0.195,0c1.153,0.348 2.392,0.285 3.504,-0.178c0.058,-0.021 0.116,-0.036 0.16,0.005c0.023,0.02 0.043,0.043 0.06,0.068l19.251,27.937l0.001,-0.003Zm-30.136,-21.79l-4.413,-4.414l8.715,-3.718c0.022,-0.009 0.046,-0.015 0.07,-0.015c0.073,0 0.116,0.073 0.154,0.139c0.088,0.135 0.181,0.267 0.278,0.394l0.029,0.034c0.025,0.037 0.008,0.073 -0.018,0.107l-4.813,7.473l-0.002,0Zm-6.367,-6.366l-5.583,-5.584c-0.95,-0.95 -1.639,-1.638 -2.118,-2.231l16.977,3.521c0.022,0.004 0.043,0.007 0.064,0.011c0.105,0.017 0.221,0.036 0.221,0.135c-0,0.106 -0.127,0.156 -0.233,0.196l-0.05,0.022l-9.278,3.93Zm-8.676,-10.686c0.019,-0.36 0.084,-0.716 0.192,-1.059c0.317,-0.997 1.177,-1.857 2.901,-3.581l7.145,-7.145c3.29,4.774 6.589,9.543 9.896,14.305c0.058,0.077 0.122,0.162 0.056,0.227c-0.312,0.344 -0.625,0.721 -0.845,1.129c-0.024,0.053 -0.061,0.098 -0.107,0.133c-0.028,0.017 -0.058,0.01 -0.09,0.004l-0.004,0l-19.144,-4.016l-0,0.003Zm12.151,-13.698l9.607,-9.607c0.903,0.395 4.189,1.784 7.128,3.025c2.225,0.941 4.253,1.797 4.89,2.075c0.064,0.026 0.122,0.051 0.15,0.115c0.017,0.039 0.009,0.088 0,0.129c-0.309,1.407 0.112,2.879 1.119,3.91c0.064,0.064 -0,0.156 -0.056,0.236l-0.03,0.044l-9.755,15.11c-0.026,0.043 -0.049,0.079 -0.092,0.107c-0.051,0.032 -0.124,0.017 -0.184,0.002c-0.379,-0.1 -0.769,-0.153 -1.162,-0.158c-0.35,-0 -0.731,0.064 -1.116,0.135l-0.002,-0c-0.043,0.006 -0.082,0.015 -0.116,-0.011c-0.038,-0.031 -0.07,-0.068 -0.096,-0.109l-10.285,-15.003Zm11.547,-11.548l12.438,-12.437c1.722,-1.722 2.584,-2.584 3.581,-2.898c0.839,-0.266 1.741,-0.266 2.58,-0c0.997,0.314 1.859,1.176 3.581,2.898l2.695,2.696l-8.845,13.699c-0.022,0.04 -0.052,0.075 -0.088,0.103c-0.053,0.037 -0.128,0.022 -0.193,-0c-1.414,-0.429 -2.953,-0.133 -4.107,0.792c-0.058,0.06 -0.144,0.025 -0.216,-0.007c-1.155,-0.502 -10.14,-4.299 -11.425,-4.845l-0.001,-0.001Zm26.753,-7.863l8.168,8.167l-1.968,12.19l0,0.032c-0.001,0.027 -0.007,0.055 -0.017,0.081c-0.021,0.043 -0.064,0.051 -0.107,0.064c-0.421,0.128 -0.817,0.325 -1.172,0.584c-0.015,0.011 -0.03,0.023 -0.043,0.037c-0.024,0.025 -0.047,0.049 -0.085,0.053c-0.032,0.001 -0.063,-0.004 -0.093,-0.015l-12.446,-5.288l-0.023,-0.011c-0.079,-0.032 -0.173,-0.07 -0.173,-0.152c-0.074,-0.693 -0.3,-1.362 -0.663,-1.957c-0.061,-0.099 -0.127,-0.201 -0.076,-0.302l8.698,-13.483Zm-8.411,18.41l11.668,4.942c0.064,0.03 0.135,0.058 0.163,0.124c0.011,0.04 0.011,0.082 -0,0.122c-0.04,0.185 -0.062,0.373 -0.065,0.562l0,0.328c0,0.081 -0.083,0.115 -0.16,0.148l-0.024,0.008c-1.848,0.79 -25.949,11.067 -25.985,11.067c-0.036,-0 -0.075,-0 -0.111,-0.037c-0.065,-0.064 -0,-0.154 0.057,-0.235c0.011,-0.014 0.021,-0.029 0.03,-0.043l9.588,-14.847l0.017,-0.025c0.056,-0.09 0.12,-0.19 0.223,-0.19l0.096,0.014c0.218,0.03 0.411,0.058 0.606,0.058c1.454,0 2.802,-0.708 3.615,-1.919c0.019,-0.032 0.044,-0.061 0.073,-0.085c0.058,-0.043 0.143,-0.022 0.209,0.008Zm-13.361,19.649l26.27,-11.203c-0,0 0.038,0 0.075,0.036c0.143,0.144 0.265,0.24 0.383,0.33l0.057,0.036c0.054,0.03 0.107,0.065 0.111,0.12c0,0.021 0,0.034 -0.004,0.054l-2.25,13.823l-0.009,0.056c-0.015,0.107 -0.03,0.229 -0.13,0.229c-1.217,0.082 -2.318,0.761 -2.938,1.812l-0.01,0.017c-0.03,0.049 -0.058,0.096 -0.107,0.122c-0.045,0.021 -0.103,0.013 -0.15,0.002l-20.95,-4.321c-0.021,-0.005 -0.325,-1.111 -0.348,-1.113l-0,0Z" style="fill:#fff;fill-rule:nonzero;"/></svg>