<?xml version="1.0" encoding="UTF-8" standalone="no"?><!DOCTYPE svg PUBLIC "-//W3C//DTD SVG 1.1//EN" "http://www.w3.org/Graphics/SVG/1.1/DTD/svg11.dtd"><svg width="100%" height="100%" viewBox="0 0 3854 883" version="1.1" xmlns="http://www.w3.org/2000/svg" xmlns:xlink="http://www.w3.org/1999/xlink" xml:space="preserve" xmlns:serif="http://www.serif.com/" style="fill-rule:evenodd;clip-rule:evenodd;stroke-linejoin:round;stroke-miterlimit:2;"><rect x="0" y="0" width="3853.28" height="882.459" style="fill:#003791;"/><g><text x="867.516px" y="548.35px" style="font-family:'Verdana-Bold', 'Verdana', sans-serif;font-weight:700;font-size:305.175px;fill:#fff;">S T E A M  O S</text></g><path d="M464.209,152.297c-142.45,-0 -259.268,109.878 -270.318,249.531l145.418,60.091c12.313,-8.388 27.188,-13.338 43.219,-13.338c1.431,0 2.825,0.088 4.256,0.141l64.678,-93.644l0,-1.334c0,-56.41 45.854,-102.285 102.279,-102.285c56.384,0 102.278,45.919 102.278,102.347c-0,56.435 -45.894,102.303 -102.278,102.303l-2.375,0l-92.15,65.813c-0,1.172 0.097,2.372 0.097,3.6c-0,42.381 -34.254,76.775 -76.644,76.775c-36.969,-0 -68.194,-26.519 -75.31,-61.653l-104.112,-43.116c32.237,113.878 136.775,197.372 260.962,197.372c149.835,-0 271.285,-121.478 271.285,-271.303c-0,-149.822 -121.478,-271.3 -271.285,-271.3Zm-100.353,411.697l-33.306,-13.791c5.925,12.281 16.147,22.591 29.716,28.269c29.315,12.181 63.143,-1.722 75.325,-31.094c5.95,-14.237 5.968,-29.819 0.115,-44.056c-5.853,-14.25 -16.959,-25.347 -31.134,-31.269c-14.106,-5.878 -29.159,-5.631 -42.453,-0.681l34.428,14.24c21.619,9.047 31.859,33.916 22.809,55.51c-8.978,21.634 -33.843,31.875 -55.481,22.872l-0.019,-0Zm258.069,-210.319c0,-37.581 -30.587,-68.169 -68.156,-68.169c-37.644,0 -68.169,30.588 -68.169,68.169c-0,37.641 30.525,68.156 68.169,68.156c37.597,0 68.156,-30.515 68.156,-68.156Zm-119.206,-0.116c-0,-28.303 22.897,-51.228 51.209,-51.228c28.228,0 51.225,22.925 51.225,51.228c0,28.285 -22.997,51.21 -51.225,51.21c-28.328,-0 -51.209,-22.925 -51.209,-51.21Z" style="fill:#fff;fill-rule:nonzero;"/></svg>