<?xml version="1.0" encoding="UTF-8" standalone="no"?><!DOCTYPE svg PUBLIC "-//W3C//DTD SVG 1.1//EN" "http://www.w3.org/Graphics/SVG/1.1/DTD/svg11.dtd"><svg width="100%" height="100%" viewBox="0 0 250 88" version="1.1" xmlns="http://www.w3.org/2000/svg" xmlns:xlink="http://www.w3.org/1999/xlink" xml:space="preserve" xmlns:serif="http://www.serif.com/" style="fill-rule:evenodd;clip-rule:evenodd;stroke-linejoin:round;stroke-miterlimit:2;"><g><clipPath id="_clip1"><rect x="0" y="0" width="249.668" height="87.5"/></clipPath><g clip-path="url(#_clip1)"><rect x="0" y="0" width="394.576" height="87.5" style="fill:#003791;"/></g><g><text x="107.806px" y="55.263px" style="font-family:'Verdana-Bold', 'Verdana', sans-serif;font-weight:700;font-size:31.25px;fill:#fff;">STEAM</text></g><path d="M60.419,11.001c-16.137,0 -29.37,12.447 -30.622,28.267l16.473,6.807c1.395,-0.95 3.08,-1.511 4.896,-1.511c0.162,0 0.32,0.01 0.482,0.016l7.327,-10.608l-0,-0.151c-0,-6.39 5.194,-11.587 11.586,-11.587c6.387,0 11.586,5.202 11.586,11.594c0,6.393 -5.199,11.589 -11.586,11.589l-0.269,0l-10.439,7.455c0,0.133 0.011,0.269 0.011,0.408c-0,4.801 -3.88,8.697 -8.682,8.697c-4.188,-0 -7.725,-3.004 -8.531,-6.984l-11.794,-4.884c3.652,12.9 15.494,22.358 29.562,22.358c16.973,-0 30.731,-13.761 30.731,-30.733c-0,-16.972 -13.761,-30.733 -30.731,-30.733Zm-11.368,46.637l-3.773,-1.562c0.671,1.391 1.829,2.559 3.366,3.202c3.321,1.38 7.153,-0.195 8.533,-3.522c0.674,-1.613 0.676,-3.378 0.013,-4.991c-0.663,-1.614 -1.921,-2.871 -3.527,-3.542c-1.598,-0.666 -3.303,-0.638 -4.809,-0.077l3.9,1.613c2.449,1.025 3.609,3.842 2.584,6.288c-1.017,2.451 -3.834,3.611 -6.285,2.591l-0.002,0Zm29.234,-23.825c0,-4.257 -3.465,-7.722 -7.721,-7.722c-4.264,0 -7.722,3.465 -7.722,7.722c0,4.264 3.458,7.721 7.722,7.721c4.259,0 7.721,-3.457 7.721,-7.721Zm-13.504,-0.013c-0,-3.206 2.594,-5.803 5.801,-5.803c3.198,-0 5.803,2.597 5.803,5.803c0,3.204 -2.605,5.801 -5.803,5.801c-3.209,-0 -5.801,-2.597 -5.801,-5.801Z" style="fill:#fff;fill-rule:nonzero;"/></g></svg>