<?xml version="1.0" encoding="UTF-8" standalone="no"?><!DOCTYPE svg PUBLIC "-//W3C//DTD SVG 1.1//EN" "http://www.w3.org/Graphics/SVG/1.1/DTD/svg11.dtd"><svg width="100%" height="100%" viewBox="0 0 852 283" version="1.1" xmlns="http://www.w3.org/2000/svg" xmlns:xlink="http://www.w3.org/1999/xlink" xml:space="preserve" xmlns:serif="http://www.serif.com/" style="fill-rule:evenodd;clip-rule:evenodd;stroke-linejoin:round;stroke-miterlimit:2;"><g><clipPath id="_clip1"><rect x="0" y="0" width="851.8" height="282.387"/></clipPath><g clip-path="url(#_clip1)"><rect x="0" y="0" width="1233.05" height="282.387" style="fill:#003791;"/></g></g><g><text x="277.605px" y="175.472px" style="font-family:'Verdana-Bold', 'Verdana', sans-serif;font-weight:700;font-size:97.656px;fill:#fff;">S T E A M</text></g><path d="M148.547,48.735c-45.584,-0 -82.966,35.161 -86.502,79.85l46.534,19.229c3.94,-2.684 8.7,-4.268 13.83,-4.268c0.458,-0 0.904,0.028 1.362,0.045l20.697,-29.966l0,-0.427c0,-18.051 14.673,-32.731 32.729,-32.731c18.043,-0 32.729,14.694 32.729,32.751c0,18.059 -14.686,32.737 -32.729,32.737l-0.76,0l-29.488,21.06c-0,0.375 0.031,0.759 0.031,1.152c-0,13.562 -10.961,24.568 -24.526,24.568c-11.83,-0 -21.822,-8.486 -24.099,-19.729l-33.316,-13.797c10.316,36.441 43.768,63.159 83.508,63.159c47.947,-0 86.811,-38.873 86.811,-86.817c0,-47.943 -38.873,-86.816 -86.811,-86.816Zm-32.113,131.743l-10.658,-4.413c1.896,3.93 5.167,7.229 9.509,9.046c9.381,3.898 20.206,-0.551 24.104,-9.95c1.904,-4.556 1.91,-9.542 0.037,-14.098c-1.873,-4.56 -5.427,-8.111 -9.963,-10.006c-4.514,-1.881 -9.331,-1.802 -13.585,-0.218l11.017,4.557c6.918,2.895 10.195,10.853 7.299,17.763c-2.873,6.923 -10.83,10.2 -17.754,7.319l-0.006,-0Zm82.582,-67.302c0,-12.026 -9.788,-21.814 -21.81,-21.814c-12.046,-0 -21.814,9.788 -21.814,21.814c0,12.045 9.768,21.81 21.814,21.81c12.031,0 21.81,-9.765 21.81,-21.81Zm-38.146,-0.037c-0,-9.057 7.327,-16.393 16.387,-16.393c9.033,0 16.392,7.336 16.392,16.393c0,9.051 -7.359,16.387 -16.392,16.387c-9.065,-0 -16.387,-7.336 -16.387,-16.387Z" style="fill:#fff;fill-rule:nonzero;"/></svg>