<?xml version="1.0" encoding="UTF-8" standalone="no"?><!DOCTYPE svg PUBLIC "-//W3C//DTD SVG 1.1//EN" "http://www.w3.org/Graphics/SVG/1.1/DTD/svg11.dtd"><svg width="100%" height="100%" viewBox="0 0 398 117" version="1.1" xmlns="http://www.w3.org/2000/svg" xmlns:xlink="http://www.w3.org/1999/xlink" xml:space="preserve" xmlns:serif="http://www.serif.com/" style="fill-rule:evenodd;clip-rule:evenodd;stroke-linejoin:round;stroke-miterlimit:2;"><g><rect x="0" y="0" width="397.917" height="116.667" style="fill:#181717;"/></g><g><path d="M108.267,49.323l-7.523,-27.312l-28.089,7.32l-4.154,7.134l-8.437,-0.063l-20.557,19.989l20.559,19.992l8.432,-0.066l4.166,7.134l28.077,7.317l7.526,-27.301l-4.274,-7.076l4.274,-7.068Zm-39.09,-11.712l21.485,-5.369l-12.331,20.774l-24.671,-0l15.517,-15.405Zm0,37.56l-15.517,-15.399l24.668,-0l12.334,20.774l-21.488,-5.369l0.003,-0.006Zm27.498,1.994l-12.339,-20.771l12.339,-20.78l5.957,20.777l-5.959,20.771l0.002,0.003Z" style="fill:#fff;fill-rule:nonzero;"/><text x="125.994px" y="73.909px" style="font-family:'Verdana-Bold', 'Verdana', sans-serif;font-weight:700;font-size:41.667px;fill:#fff;">U N I T Y</text></g></svg>