<?xml version="1.0" encoding="UTF-8" standalone="no"?><!DOCTYPE svg PUBLIC "-//W3C//DTD SVG 1.1//EN" "http://www.w3.org/Graphics/SVG/1.1/DTD/svg11.dtd"><svg width="100%" height="100%" viewBox="0 0 950 367" version="1.1" xmlns="http://www.w3.org/2000/svg" xmlns:xlink="http://www.w3.org/1999/xlink" xml:space="preserve" xmlns:serif="http://www.serif.com/" style="fill-rule:evenodd;clip-rule:evenodd;stroke-linejoin:round;stroke-miterlimit:2;"><g><rect x="0" y="0" width="962.263" height="374.186" style="fill:#0288a6;"/></g><g><text x="329.16px" y="244.27px" style="font-family:'Verdana-Bold', 'Verdana', sans-serif;font-weight:700;font-size:130.208px;fill:#fff;">Y A R N</text></g><path d="M165.702,57.732c-66.68,0 -120.78,54.1 -120.78,120.779c0,66.684 54.1,120.784 120.78,120.784c66.683,-0 120.783,-54.1 120.783,-120.784c-0,-66.679 -54.1,-120.779 -120.783,-120.779Zm7.729,41.317c1.846,-0 3.654,0.533 5.287,1.579c1.259,0.838 2.888,1.863 7.596,11.617c3.121,-0.888 4.713,-0.425 5.546,-0.192c2.054,0.563 3.687,1.913 4.662,3.775c4.8,9.229 5.455,25.696 3.363,36.283c-2.425,12.4 -7.6,20.421 -11.383,25.93c3.258,3.312 7.829,9.045 11.241,18.366c2.796,7.792 3.121,14.879 2.746,20.284c2.088,-0.98 4.113,-2.084 6.063,-3.313c5.966,-3.683 14.966,-9.229 25.695,-9.371c7.184,-0.091 12.771,4.479 13.617,11.1c0.842,6.309 -3.308,12.292 -9.512,13.713c-6.534,1.587 -9.563,2.796 -18.33,8.483c-12.4,8.021 -25.554,12.5 -30.312,13.992c-2.058,1.687 -4.488,2.871 -7.088,3.45c-7.416,1.821 -32.87,3.171 -34.887,3.171l-0.463,-0c-7.879,-0 -12.216,-2.425 -14.591,-4.942c-6.625,3.312 -15.2,1.912 -21.359,-1.35c-4.291,-2.142 -6.675,-6.883 -5.837,-11.604c-0.579,-0.6 -1.096,-1.259 -1.542,-1.963c-1.629,-2.516 -5.312,-9.421 -4.571,-19.587c0.567,-7.275 5.6,-13.759 8.859,-17.209c-0.234,-7.775 1.166,-15.508 4.108,-22.708c3.079,-7.317 8.908,-13.567 13.283,-17.483c-3.22,-5.404 -6.479,-13.759 -3.308,-22.242c2.283,-6.062 4.146,-9.421 8.25,-10.871l-0.05,0c2.004,-0.746 3.917,-1.541 4.892,-2.608c5.987,-6.542 14.279,-10.521 23.129,-11.1c0.375,-0.938 0.796,-1.863 1.258,-2.85c3.121,-6.621 6.434,-10.358 10.309,-11.754c1.054,-0.4 2.175,-0.604 3.3,-0.604l0.029,0.008Zm0.062,7.046c-5.104,0.162 -10.075,15.287 -10.075,15.287c0,0 -12.783,-2.05 -22.808,8.767c-2.004,2.196 -4.708,3.362 -7.508,4.429c-0.796,0.283 -1.771,0.233 -4.196,6.763c-3.734,9.975 6.291,21.079 6.291,21.079c0,-0 -11.937,8.441 -16.366,18.933c-4.892,11.513 -3.404,22.754 -3.404,22.754c-0,0 -8.484,7.367 -9.046,14.967c-0.517,6.675 1.396,12.079 3.45,15.25c2.287,3.45 5.133,1.771 5.133,1.771c0,-0 -5.646,6.571 -0.371,9.371c4.8,2.516 12.913,3.966 17.213,-0.371c3.116,-3.121 3.733,-10.075 4.891,-12.917c0.28,-0.654 1.205,1.117 2.1,2.004c0.98,0.938 2.659,1.963 2.659,1.963c-0,-0 -7.6,3.262 -4.479,10.729c1.029,2.475 4.712,4.058 10.729,4.008c2.233,-0.054 26.812,-1.4 33.346,-2.979c3.775,-0.887 5.083,-2.85 5.083,-2.85c-0,0 15.762,-4.337 30.175,-13.658c9.229,-6.021 13.012,-7.65 20.471,-9.421c6.162,-1.492 5.737,-11.05 -2.425,-10.913c-8.446,0.092 -15.85,4.43 -22.104,8.305c-11.705,7.229 -17.534,6.766 -17.534,6.766l-0.179,-0.325c-0.796,-1.308 3.733,-13.012 -1.35,-26.954c-5.504,-15.246 -14.221,-18.933 -13.525,-20.1c2.988,-5.033 10.446,-13.054 13.425,-27.979c1.771,-9.05 1.308,-23.925 -2.708,-31.717c-0.742,-1.45 -7.367,2.425 -7.367,2.425c0,0 -6.2,-13.796 -7.929,-14.925c-0.467,-0.312 -1.021,-0.475 -1.583,-0.462l-0.009,-0Z" style="fill:#fff;fill-rule:nonzero;"/></svg>