<?xml version="1.0" encoding="UTF-8" standalone="no"?><!DOCTYPE svg PUBLIC "-//W3C//DTD SVG 1.1//EN" "http://www.w3.org/Graphics/SVG/1.1/DTD/svg11.dtd"><svg width="100%" height="100%" viewBox="0 0 228 88" version="1.1" xmlns="http://www.w3.org/2000/svg" xmlns:xlink="http://www.w3.org/1999/xlink" xml:space="preserve" xmlns:serif="http://www.serif.com/" style="fill-rule:evenodd;clip-rule:evenodd;stroke-linejoin:round;stroke-miterlimit:2;"><clipPath id="_clip1"><rect x="0" y="0" width="227.236" height="87.732"/></clipPath><g clip-path="url(#_clip1)"><rect x="0" y="0" width="230.943" height="87.5" style="fill:#0288a6;"/></g><g><text x="92.826px" y="57.703px" style="font-family:'Verdana-Bold', 'Verdana', sans-serif;font-weight:700;font-size:31.25px;fill:#fff;">YARN</text></g><path d="M49.294,14.163c-16.003,-0 -28.987,12.984 -28.987,28.987c-0,16.004 12.984,28.988 28.987,28.988c16.004,-0 28.988,-12.984 28.988,-28.988c-0,-16.003 -12.984,-28.987 -28.988,-28.987Zm1.855,9.916c0.443,0 0.877,0.128 1.269,0.379c0.302,0.201 0.693,0.447 1.823,2.788c0.749,-0.213 1.131,-0.102 1.331,-0.046c0.493,0.135 0.885,0.459 1.119,0.906c1.152,2.215 1.309,6.167 0.807,8.708c-0.582,2.976 -1.824,4.901 -2.732,6.223c0.782,0.795 1.879,2.171 2.698,4.408c0.671,1.87 0.749,3.571 0.659,4.868c0.501,-0.235 0.987,-0.5 1.455,-0.795c1.432,-0.884 3.592,-2.215 6.167,-2.249c1.724,-0.022 3.065,1.075 3.268,2.664c0.202,1.514 -0.794,2.95 -2.283,3.291c-1.568,0.381 -2.295,0.671 -4.399,2.036c-2.976,1.925 -6.133,3 -7.275,3.358c-0.494,0.405 -1.077,0.689 -1.701,0.828c-1.78,0.437 -7.889,0.761 -8.373,0.761l-0.111,0c-1.891,0 -2.932,-0.582 -3.502,-1.186c-1.59,0.795 -3.648,0.459 -5.126,-0.324c-1.03,-0.514 -1.602,-1.652 -1.401,-2.785c-0.139,-0.144 -0.263,-0.302 -0.37,-0.471c-0.391,-0.604 -1.275,-2.261 -1.097,-4.701c0.136,-1.746 1.344,-3.302 2.126,-4.13c-0.056,-1.866 0.28,-3.722 0.986,-5.45c0.739,-1.756 2.138,-3.256 3.188,-4.196c-0.773,-1.297 -1.555,-3.302 -0.794,-5.338c0.548,-1.455 0.995,-2.261 1.98,-2.609l-0.012,-0c0.481,-0.179 0.94,-0.37 1.174,-0.626c1.437,-1.57 3.427,-2.525 5.551,-2.664c0.09,-0.225 0.191,-0.447 0.302,-0.684c0.749,-1.589 1.544,-2.486 2.474,-2.821c0.253,-0.096 0.522,-0.145 0.792,-0.145l0.007,0.002Zm0.015,1.691c-1.225,0.039 -2.418,3.669 -2.418,3.669c-0,0 -3.068,-0.492 -5.474,2.104c-0.481,0.527 -1.13,0.807 -1.802,1.063c-0.191,0.068 -0.425,0.056 -1.007,1.623c-0.896,2.394 1.51,5.059 1.51,5.059c-0,-0 -2.865,2.026 -3.928,4.544c-1.174,2.763 -0.817,5.461 -0.817,5.461c0,0 -2.036,1.768 -2.171,3.592c-0.124,1.602 0.335,2.899 0.828,3.66c0.549,0.828 1.232,0.425 1.232,0.425c0,0 -1.355,1.577 -0.089,2.249c1.152,0.604 3.099,0.952 4.131,-0.089c0.748,-0.749 0.896,-2.418 1.174,-3.1c0.067,-0.157 0.289,0.268 0.504,0.481c0.235,0.225 0.638,0.471 0.638,0.471c0,0 -1.824,0.783 -1.075,2.575c0.247,0.594 1.131,0.974 2.575,0.962c0.536,-0.013 6.435,-0.336 8.003,-0.715c0.906,-0.213 1.22,-0.684 1.22,-0.684c-0,-0 3.783,-1.041 7.242,-3.278c2.215,-1.445 3.123,-1.836 4.913,-2.261c1.479,-0.358 1.377,-2.652 -0.582,-2.619c-2.027,0.022 -3.804,1.063 -5.305,1.993c-2.809,1.735 -4.208,1.624 -4.208,1.624l-0.043,-0.078c-0.191,-0.314 0.896,-3.123 -0.324,-6.469c-1.321,-3.659 -3.413,-4.544 -3.246,-4.824c0.717,-1.208 2.507,-3.133 3.222,-6.715c0.425,-2.172 0.314,-5.742 -0.65,-7.612c-0.178,-0.348 -1.768,0.582 -1.768,0.582c0,0 -1.488,-3.311 -1.903,-3.582c-0.112,-0.075 -0.245,-0.114 -0.38,-0.111l-0.002,-0Z" style="fill:#fff;fill-rule:nonzero;"/></svg>