<?xml version="1.0" encoding="UTF-8" standalone="no"?><!DOCTYPE svg PUBLIC "-//W3C//DTD SVG 1.1//EN" "http://www.w3.org/Graphics/SVG/1.1/DTD/svg11.dtd"><svg width="100%" height="100%" viewBox="0 0 420 117" version="1.1" xmlns="http://www.w3.org/2000/svg" xmlns:xlink="http://www.w3.org/1999/xlink" xml:space="preserve" xmlns:serif="http://www.serif.com/" style="fill-rule:evenodd;clip-rule:evenodd;stroke-linejoin:round;stroke-miterlimit:2;"><g><rect x="0" y="0" width="419.792" height="116.667" style="fill:#e50914;"/></g><g><text x="91.469px" y="75.064px" style="font-family:'Verdana-Bold', 'Verdana', sans-serif;font-weight:700;font-size:41.667px;fill:#fff;">Y O U T U B E</text><path d="M80.255,40.674c-0.811,-3.056 -3.197,-5.457 -6.248,-6.289c-5.509,-1.487 -27.607,-1.487 -27.607,-1.487c0,0 -22.098,0 -27.61,1.487c-3.05,0.833 -5.434,3.234 -6.245,6.289c-1.478,5.548 -1.478,17.119 -1.478,17.119c-0,0 -0,11.572 1.478,17.119c0.811,3.057 3.197,5.458 6.248,6.29c5.509,1.487 27.607,1.487 27.607,1.487c0,-0 22.098,-0 27.61,-1.487c3.052,-0.831 5.437,-3.233 6.248,-6.29c1.475,-5.547 1.475,-17.119 1.475,-17.119c0,0 0,-11.571 -1.478,-17.119Zm-41.084,27.625l0,-21.011l18.471,10.505l-18.471,10.506Z" style="fill:#fff;fill-rule:nonzero;"/></g></svg>